<mxfile host="app.diagrams.net" modified="2023-11-14T19:49:39.905Z" agent="Mozilla/5.0 (X11; Linux x86_64; rv:91.0) Gecko/20100101 Firefox/91.0" etag="dsT4X5bbY8AmOTJAb7ga" version="22.1.1" type="github">
  <diagram name="Page-1" id="jVV0RAuZTFDPRcbFIyok">
    <mxGraphModel dx="1788" dy="940" grid="1" gridSize="10" guides="1" tooltips="1" connect="1" arrows="1" fold="1" page="1" pageScale="1" pageWidth="1654" pageHeight="2336" math="0" shadow="0">
      <root>
        <mxCell id="0" />
        <mxCell id="1" parent="0" />
        <mxCell id="iWHlyYUsSo8P8iGn-lNc-2" style="edgeStyle=orthogonalEdgeStyle;rounded=0;orthogonalLoop=1;jettySize=auto;html=1;" edge="1" parent="1" source="iWHlyYUsSo8P8iGn-lNc-1">
          <mxGeometry relative="1" as="geometry">
            <mxPoint x="1240" y="1105" as="targetPoint" />
          </mxGeometry>
        </mxCell>
        <mxCell id="iWHlyYUsSo8P8iGn-lNc-3" value="&lt;font style=&quot;font-size: 14px;&quot;&gt;otherwise&lt;/font&gt;" style="edgeStyle=orthogonalEdgeStyle;rounded=0;orthogonalLoop=1;jettySize=auto;html=1;entryX=0.5;entryY=0;entryDx=0;entryDy=0;" edge="1" parent="1" source="iWHlyYUsSo8P8iGn-lNc-1" target="iWHlyYUsSo8P8iGn-lNc-5">
          <mxGeometry relative="1" as="geometry">
            <mxPoint x="896.25" y="1436.4" as="targetPoint" />
          </mxGeometry>
        </mxCell>
        <mxCell id="iWHlyYUsSo8P8iGn-lNc-1" value="" style="triangle;whiteSpace=wrap;html=1;" vertex="1" parent="1">
          <mxGeometry x="828" y="1040" width="138.5" height="130" as="geometry" />
        </mxCell>
        <mxCell id="iWHlyYUsSo8P8iGn-lNc-4" value="&lt;font style=&quot;font-size: 14px;&quot;&gt;Zero food goes to animals or biofuels.&lt;br&gt;&lt;br&gt;&lt;/font&gt;&lt;font style=&quot;font-size: 14px;&quot;&gt;Run one more &quot;smoothing&quot; &lt;br&gt;optimization to reduce variation in food usage if possible, and finally &lt;br&gt;returns the percent humans fed and allocations over time to the &lt;br&gt;interpreter.&lt;/font&gt;" style="rounded=0;whiteSpace=wrap;html=1;" vertex="1" parent="1">
          <mxGeometry x="1240" y="1000" width="200" height="210" as="geometry" />
        </mxCell>
        <mxCell id="iWHlyYUsSo8P8iGn-lNc-7" value="" style="edgeStyle=orthogonalEdgeStyle;rounded=0;orthogonalLoop=1;jettySize=auto;html=1;entryX=0.5;entryY=0;entryDx=0;entryDy=0;exitX=0.5;exitY=1;exitDx=0;exitDy=0;" edge="1" parent="1" source="iWHlyYUsSo8P8iGn-lNc-29" target="iWHlyYUsSo8P8iGn-lNc-14">
          <mxGeometry x="0.0732" y="254" relative="1" as="geometry">
            <mxPoint x="890" y="1580" as="sourcePoint" />
            <mxPoint x="896.4999999999995" y="1700" as="targetPoint" />
            <Array as="points" />
            <mxPoint as="offset" />
          </mxGeometry>
        </mxCell>
        <mxCell id="iWHlyYUsSo8P8iGn-lNc-30" style="edgeStyle=orthogonalEdgeStyle;rounded=0;orthogonalLoop=1;jettySize=auto;html=1;entryX=0.5;entryY=0;entryDx=0;entryDy=0;" edge="1" parent="1" source="iWHlyYUsSo8P8iGn-lNc-5" target="iWHlyYUsSo8P8iGn-lNc-29">
          <mxGeometry relative="1" as="geometry" />
        </mxCell>
        <mxCell id="iWHlyYUsSo8P8iGn-lNc-5" value="&lt;font style=&quot;font-size: 14px;&quot;&gt;In this case humans are not starving, (OR they are, but there&#39;s still feed available). Run the animal feed model again, allowing animals the excess feed after humans consume their minimum requirement&lt;/font&gt;" style="rounded=0;whiteSpace=wrap;html=1;" vertex="1" parent="1">
          <mxGeometry x="796.25" y="1302" width="200" height="130" as="geometry" />
        </mxCell>
        <mxCell id="iWHlyYUsSo8P8iGn-lNc-13" style="edgeStyle=orthogonalEdgeStyle;rounded=0;orthogonalLoop=1;jettySize=auto;html=1;" edge="1" parent="1" source="iWHlyYUsSo8P8iGn-lNc-12" target="iWHlyYUsSo8P8iGn-lNc-1">
          <mxGeometry relative="1" as="geometry" />
        </mxCell>
        <mxCell id="iWHlyYUsSo8P8iGn-lNc-12" value="&lt;font style=&quot;font-size: 14px;&quot;&gt;Run a first optimization to see how many people could be fed from just the meat from animals (that are fed no animal feed) and the input food with no feed used. This first optimization finds the minimum starvation if we don&#39;t care about prioritizing outdoor crops and stored food to humans. &lt;br&gt;&lt;br&gt;Run a second optimization. The second optimization enforces the same starvation level, but tries to maximize outdoor crops and stored food going to humans rather than animals.&lt;/font&gt;" style="rounded=0;whiteSpace=wrap;html=1;" vertex="1" parent="1">
          <mxGeometry x="796.25" y="540" width="200" height="330" as="geometry" />
        </mxCell>
        <mxCell id="iWHlyYUsSo8P8iGn-lNc-19" style="edgeStyle=orthogonalEdgeStyle;rounded=0;orthogonalLoop=1;jettySize=auto;html=1;" edge="1" parent="1" source="iWHlyYUsSo8P8iGn-lNc-14" target="iWHlyYUsSo8P8iGn-lNc-18">
          <mxGeometry relative="1" as="geometry" />
        </mxCell>
        <mxCell id="iWHlyYUsSo8P8iGn-lNc-14" value="&lt;font style=&quot;font-size: 14px;&quot;&gt;Run a third optimization, using the new values for feed to humans and to animals determined above&lt;/font&gt;&lt;font style=&quot;font-size: 14px;&quot;&gt;. This third&lt;br&gt; optimization finds the minimum starvation if we don&#39;t care about &lt;br&gt;prioritizing outdoor crops and stored food to humans. &lt;br&gt;&lt;br&gt;Run a fourth optimization. The fourth &lt;br&gt;optimization enforces the same minimum as the third optimization, but tries to maximize outdoor &lt;br&gt;crops and stored food going to humans rather than animals while leaving same levels of food to humans.&lt;br&gt;&lt;/font&gt;" style="rounded=0;whiteSpace=wrap;html=1;" vertex="1" parent="1">
          <mxGeometry x="796.25" y="1684" width="200" height="352" as="geometry" />
        </mxCell>
        <mxCell id="iWHlyYUsSo8P8iGn-lNc-16" style="edgeStyle=orthogonalEdgeStyle;rounded=0;orthogonalLoop=1;jettySize=auto;html=1;entryX=0.5;entryY=0;entryDx=0;entryDy=0;" edge="1" parent="1" source="iWHlyYUsSo8P8iGn-lNc-15" target="iWHlyYUsSo8P8iGn-lNc-12">
          <mxGeometry relative="1" as="geometry" />
        </mxCell>
        <mxCell id="iWHlyYUsSo8P8iGn-lNc-15" value="&lt;font style=&quot;font-size: 14px;&quot;&gt;Run the animal feed model with no human-edible feed inputs.&lt;br&gt;&lt;/font&gt;" style="rounded=0;whiteSpace=wrap;html=1;" vertex="1" parent="1">
          <mxGeometry x="796" y="360" width="200" height="110" as="geometry" />
        </mxCell>
        <mxCell id="iWHlyYUsSo8P8iGn-lNc-18" value="R&lt;font style=&quot;font-size: 14px;&quot;&gt;un one more &quot;smoothing&quot; optimization to reduce variation in food usage if possible, and finally returns the percent humans fed and allocations over time to the interpreter.&lt;br&gt;&lt;/font&gt;" style="rounded=0;whiteSpace=wrap;html=1;" vertex="1" parent="1">
          <mxGeometry x="796.25" y="2098" width="200" height="130" as="geometry" />
        </mxCell>
        <mxCell id="iWHlyYUsSo8P8iGn-lNc-20" value="&lt;font style=&quot;font-size: 15px;&quot;&gt;If humans are starving even with no feed going to animals or biofuels&lt;br&gt;AND&lt;br&gt; there is no remaining food available to feed animals (such as &amp;gt;200 kcals/day of seaweed)&lt;br&gt;&lt;/font&gt;" style="text;whiteSpace=wrap;html=1;align=center;" vertex="1" parent="1">
          <mxGeometry x="648" y="1038" width="168" height="100" as="geometry" />
        </mxCell>
        <mxCell id="iWHlyYUsSo8P8iGn-lNc-29" value="&lt;font style=&quot;font-size: 14px;&quot;&gt;If any food is left after human minimum needs and animals consume the human edible feed, biofuel demand is attempted to be satisfied.&lt;/font&gt;&lt;font style=&quot;font-size: 14px;&quot;&gt; Food unused as animal feed or biofuel goes back to humans in the form of overconsumption beyond minimum dietary requirements&lt;/font&gt;" style="rounded=0;whiteSpace=wrap;html=1;" vertex="1" parent="1">
          <mxGeometry x="796.25" y="1460" width="200" height="180" as="geometry" />
        </mxCell>
      </root>
    </mxGraphModel>
  </diagram>
</mxfile>
